{
  "accessors": [
    {
      "bufferView": 1,
      "componentType": 5126,
      "count": 65532,
      "max": [
        1.299399971961975,
        11.365900039672852,
        15.0068998336792
      ],
      "min": [
        -0.8698999881744385,
        -1.854099988937378,
        -0.49079999327659607
      ],
      "type": "VEC3"
    },
    {
      "bufferView": 1,
      "byteOffset": 786384,
      "componentType": 5126,
      "count": 65532,
      "max": [
        0.9999579787254333,
        0.9994191527366638,
        0.9999876618385315
      ],
      "min": [
        -0.9999796152114868,
        -0.9995838403701782,
        -0.9997366070747375
      ],
      "type": "VEC3"
    },
    {
      "bufferView": 0,
      "componentType": 5125,
      "count": 65532,
      "type": "SCALAR"
    },
    {
      "bufferView": 1,
      "byteOffset": 1572768,
      "componentType": 5126,
      "count": 41862,
      "max": [
        1.3181999921798706,
        11.269599914550781,
        11.83180046081543
      ],
      "min": [
        -0.8880000114440918,
        -1.9297000169754028,
        -0.4223000109195709
      ],
      "type": "VEC3"
    },
    {
      "bufferView": 1,
      "byteOffset": 2075112,
      "componentType": 5126,
      "count": 41862,
      "max": [
        0.9999884963035583,
        0.9999396204948425,
        0.9987876415252686
      ],
      "min": [
        -0.9998825788497925,
        -0.99996018409729,
        -0.9999133348464966
      ],
      "type": "VEC3"
    },
    {
      "bufferView": 0,
      "byteOffset": 262128,
      "componentType": 5125,
      "count": 41862,
      "type": "SCALAR"
    },
    {
      "bufferView": 1,
      "byteOffset": 2577456,
      "componentType": 5126,
      "count": 1401,
      "max": [
        62.000999450683594,
        -8.0,
        98.0009994506836
      ],
      "min": [
        22.0,
        -48.000999450683594,
        0.0
      ],
      "type": "VEC3"
    },
    {
      "bufferView": 1,
      "byteOffset": 2594268,
      "componentType": 5126,
      "count": 1401,
      "max": [
        1.0,
        1.0,
        1.0
      ],
      "min": [
        -1.0,
        -1.0,
        -1.0
      ],
      "type": "VEC3"
    },
    {
      "bufferView": 0,
      "byteOffset": 429576,
      "componentType": 5125,
      "count": 8418,
      "type": "SCALAR"
    }
  ],
  "asset": {
    "extras": {
      "author": "DineshThennarasan (https://sketchfab.com/dineshthennarasan)",
      "license": "CC-BY-4.0 (http://creativecommons.org/licenses/by/4.0/)",
      "source": "https://sketchfab.com/3d-models/golden-ball-crystal-diamond-drop-earrings-863d3b5c1a714cfb88dc01c7ea0fbcfe",
      "title": "Golden Ball Crystal Diamond Drop Earrings"
    },
    "generator": "Sketchfab-12.67.0",
    "version": "2.0"
  },
  "bufferViews": [
    {
      "buffer": 0,
      "byteLength": 463248,
      "name": "floatBufferViews",
      "target": 34963
    },
    {
      "buffer": 0,
      "byteLength": 2611080,
      "byteOffset": 463248,
      "byteStride": 12,
      "name": "floatBufferViews",
      "target": 34962
    }
  ],
  "buffers": [
    {
      "byteLength": 3074328,
      "uri": "scene.bin"
    }
  ],
  "extensionsRequired": [
    "KHR_materials_pbrSpecularGlossiness"
  ],
  "extensionsUsed": [
    "KHR_materials_pbrSpecularGlossiness"
  ],
  "materials": [
    {
      "doubleSided": true,
      "extensions": {
        "KHR_materials_pbrSpecularGlossiness": {
          "diffuseFactor": [
            0.0,
            0.0,
            0.0,
            1.0
          ],
          "glossinessFactor": 1.0,
          "specularFactor": [
            0.8713671191987972,
            0.7156935005064807,
            0.19120168274079138
          ]
        }
      },
      "name": "Material.001"
    },
    {
      "doubleSided": true,
      "extensions": {
        "KHR_materials_pbrSpecularGlossiness": {
          "diffuseFactor": [
            0.0,
            0.0,
            0.0,
            1.0
          ],
          "glossinessFactor": 1.0,
          "specularFactor": [
            0.8713671191987972,
            0.7156935005064807,
            0.19120168274079138
          ]
        }
      },
      "name": "Material.002"
    }
  ],
  "meshes": [
    {
      "name": "Hook for earring_Material.001_0",
      "primitives": [
        {
          "attributes": {
            "NORMAL": 1,
            "POSITION": 0
          },
          "indices": 2,
          "material": 0,
          "mode": 4
        }
      ]
    },
    {
      "name": "Hook for earring_Material.001_0",
      "primitives": [
        {
          "attributes": {
            "NORMAL": 4,
            "POSITION": 3
          },
          "indices": 5,
          "material": 0,
          "mode": 4
        }
      ]
    },
    {
      "name": "EARRING2_Material.002_0",
      "primitives": [
        {
          "attributes": {
            "NORMAL": 7,
            "POSITION": 6
          },
          "indices": 8,
          "material": 1,
          "mode": 4
        }
      ]
    }
  ],
  "nodes": [
    {
      "children": [
        1
      ],
      "matrix": [
        1.0,
        0.0,
        0.0,
        0.0,
        0.0,
        2.220446049250313e-16,
        -1.0,
        0.0,
        0.0,
        1.0,
        2.220446049250313e-16,
        0.0,
        0.0,
        0.0,
        0.0,
        1.0
      ],
      "name": "Sketchfab_model"
    },
    {
      "children": [
        2
      ],
      "matrix": [
        1.0,
        0.0,
        0.0,
        0.0,
        0.0,
        0.0,
        1.0,
        0.0,
        0.0,
        -1.0,
        0.0,
        0.0,
        0.0,
        0.0,
        0.0,
        1.0
      ],
      "name": "c117744f5dae462ca426ac0b6af3c3ad.fbx"
    },
    {
      "children": [
        3,
        6,
        8,
        11
      ],
      "name": "RootNode"
    },
    {
      "children": [
        4,
        5
      ],
      "matrix": [
        2.761275977244891,
        -2.002297160607941e-15,
        17.82245235624766,
        0.0,
        17.82245235624401,
        -1.1538089854743873e-05,
        -2.7612759772443236,
        0.0,
        1.1402053582419008e-05,
        18.03508949279416,
        -1.7665479463559847e-06,
        0.0,
        248.35458374023438,
        499.84442138671875,
        166.20164489746094,
        1.0
      ],
      "name": "Hook for earring"
    },
    {
      "mesh": 0,
      "name": "Hook for earring_Material.001_0"
    },
    {
      "mesh": 1,
      "name": "Hook for earring_Material.001_0"
    },
    {
      "children": [
        7
      ],
      "matrix": [
        5.963871479034424,
        0.0,
        0.0,
        0.0,
        0.0,
        -9.716379931698549e-07,
        -5.963871479034345,
        0.0,
        0.0,
        5.963871479034345,
        -9.716379931698549e-07,
        0.0,
        0.0,
        0.0,
        0.0,
        1.0
      ],
      "name": "EARRING2"
    },
    {
      "mesh": 2,
      "name": "EARRING2_Material.002_0"
    },
    {
      "children": [
        9
      ],
      "matrix": [
        -29.08647719990347,
        -5.518906457566863,
        -95.51711910171437,
        0.0,
        56.63930913109449,
        79.46723428563203,
        -21.83912397841966,
        0.0,
        77.11008775993375,
        -60.45246356562044,
        -19.98834696773717,
        0.0,
        407.6245422363281,
        590.38623046875,
        -100.54539489746094,
        1.0
      ],
      "name": "Lamp"
    },
    {
      "children": [
        10
      ],
      "matrix": [
        1.0,
        0.0,
        0.0,
        0.0,
        0.0,
        2.220446049250313e-16,
        1.0,
        0.0,
        0.0,
        -1.0,
        2.220446049250313e-16,
        0.0,
        0.0,
        0.0,
        0.0,
        1.0
      ],
      "name": "Object_9"
    },
    {
      "name": "Object_10"
    },
    {
      "children": [
        12
      ],
      "matrix": [
        -65.15583280329096,
        -44.52713576570858,
        -61.41703047373549,
        0.0,
        -32.40134137821245,
        89.53957451233616,
        -30.542088974418615,
        0.0,
        68.59205472129975,
        -1.0718647115348782e-05,
        -72.7676336239627,
        0.0,
        748.1131591796875,
        534.3665161132813,
        650.7639770507813,
        1.0
      ],
      "name": "Camera"
    },
    {
      "name": "Object_12"
    }
  ],
  "scene": 0,
  "scenes": [
    {
      "name": "Sketchfab_Scene",
      "nodes": [
        0
      ]
    }
  ]
}
