{
  "accessors": [
    {
      "bufferView": 2,
      "componentType": 5126,
      "count": 1026,
      "max": [
        0.10854300111532211,
        0.11650999635457993,
        1.80063796043396
      ],
      "min": [
        -0.10862299799919128,
        -0.13414399325847626,
        1.6485320329666138
      ],
      "type": "VEC3"
    },
    {
      "bufferView": 2,
      "byteOffset": 12312,
      "componentType": 5126,
      "count": 1026,
      "max": [
        0.9927243590354919,
        0.9997535347938538,
        0.9998380541801453
      ],
      "min": [
        -0.9927243590354919,
        -0.9853925108909607,
        -0.996978223323822
      ],
      "type": "VEC3"
    },
    {
      "bufferView": 3,
      "componentType": 5126,
      "count": 1026,
      "max": [
        0.9999660849571228,
        0.9998685121536255,
        0.9967238306999207,
        1.0
      ],
      "min": [
        -0.9992703199386597,
        -0.9670334458351135,
        -0.37918075919151306,
        1.0
      ],
      "type": "VEC4"
    },
    {
      "bufferView": 1,
      "componentType": 5126,
      "count": 1026,
      "max": [
        0.9729040265083313,
        0.9850280284881592
      ],
      "min": [
        0.027925999835133553,
        0.016054000705480576
      ],
      "type": "VEC2"
    },
    {
      "bufferView": 0,
      "componentType": 5125,
      "count": 5592,
      "type": "SCALAR"
    }
  ],
  "asset": {
    "extras": {
      "author": "VALIDOL (https://sketchfab.com/VALIDOLOVICH)",
      "license": "CC-BY-4.0 (http://creativecommons.org/licenses/by/4.0/)",
      "source": "https://sketchfab.com/3d-models/hat-bedf29674a0048a5bb628cf720f6c96e",
      "title": "Hat"
    },
    "generator": "Sketchfab-12.68.0",
    "version": "2.0"
  },
  "bufferViews": [
    {
      "buffer": 0,
      "byteLength": 22368,
      "name": "floatBufferViews",
      "target": 34963
    },
    {
      "buffer": 0,
      "byteLength": 8208,
      "byteOffset": 22368,
      "byteStride": 8,
      "name": "floatBufferViews",
      "target": 34962
    },
    {
      "buffer": 0,
      "byteLength": 24624,
      "byteOffset": 30576,
      "byteStride": 12,
      "name": "floatBufferViews",
      "target": 34962
    },
    {
      "buffer": 0,
      "byteLength": 16416,
      "byteOffset": 55200,
      "byteStride": 16,
      "name": "floatBufferViews",
      "target": 34962
    }
  ],
  "buffers": [
    {
      "byteLength": 71616,
      "uri": "scene.bin"
    }
  ],
  "images": [
    {
      "uri": "textures/007_baseColor.png"
    },
    {
      "uri": "textures/007_metallicRoughness.png"
    },
    {
      "uri": "textures/007_normal.png"
    }
  ],
  "materials": [
    {
      "doubleSided": true,
      "name": ".007",
      "normalTexture": {
        "index": 2
      },
      "pbrMetallicRoughness": {
        "baseColorTexture": {
          "index": 0
        },
        "metallicFactor": 0.8,
        "metallicRoughnessTexture": {
          "index": 1
        },
        "roughnessFactor": 0.8
      }
    }
  ],
  "meshes": [
    {
      "name": "Object_0",
      "primitives": [
        {
          "attributes": {
            "NORMAL": 1,
            "POSITION": 0,
            "TANGENT": 2,
            "TEXCOORD_0": 3
          },
          "indices": 4,
          "material": 0,
          "mode": 4
        }
      ]
    }
  ],
  "nodes": [
    {
      "children": [
        1
      ],
      "matrix": [
        1.0,
        0.0,
        0.0,
        0.0,
        0.0,
        2.220446049250313e-16,
        -1.0,
        0.0,
        0.0,
        1.0,
        2.220446049250313e-16,
        0.0,
        0.0,
        0.0,
        0.0,
        1.0
      ],
      "name": "Sketchfab_model"
    },
    {
      "children": [
        2
      ],
      "name": "461bc5f386464b2db3588af9024ba111.obj.cleaner.materialmerger.gles"
    },
    {
      "mesh": 0,
      "name": "Object_2"
    }
  ],
  "samplers": [
    {
      "magFilter": 9729,
      "minFilter": 9987,
      "wrapS": 10497,
      "wrapT": 10497
    }
  ],
  "scene": 0,
  "scenes": [
    {
      "name": "Sketchfab_Scene",
      "nodes": [
        0
      ]
    }
  ],
  "textures": [
    {
      "sampler": 0,
      "source": 0
    },
    {
      "sampler": 0,
      "source": 1
    },
    {
      "sampler": 0,
      "source": 2
    }
  ]
}
