{
  "accessors": [
    {
      "bufferView": 2,
      "componentType": 5126,
      "count": 22368,
      "max": [
        1.0099765062332153,
        0.30462437868118286,
        0.16478267312049866
      ],
      "min": [
        -1.0100760459899902,
        -0.3883924186229706,
        -0.03970158100128174
      ],
      "type": "VEC3"
    },
    {
      "bufferView": 2,
      "byteOffset": 268416,
      "componentType": 5126,
      "count": 22368,
      "max": [
        0.9999328851699829,
        0.9999976754188538,
        0.9999822378158569
      ],
      "min": [
        -0.9999507069587708,
        -0.9999999403953552,
        -0.9999999403953552
      ],
      "type": "VEC3"
    },
    {
      "bufferView": 1,
      "componentType": 5126,
      "count": 22368,
      "max": [
        0.7620599865913391,
        0.9980499744415283
      ],
      "min": [
        0.0019499999471008778,
        0.00195997953414917
      ],
      "type": "VEC2"
    },
    {
      "bufferView": 0,
      "componentType": 5125,
      "count": 122208,
      "type": "SCALAR"
    },
    {
      "bufferView": 2,
      "byteOffset": 536832,
      "componentType": 5126,
      "count": 32277,
      "max": [
        0.9215558171272278,
        0.2608802914619446,
        0.12176568061113358
      ],
      "min": [
        -0.9215555787086487,
        -0.3407418429851532,
        -0.005788560025393963
      ],
      "type": "VEC3"
    },
    {
      "bufferView": 2,
      "byteOffset": 924156,
      "componentType": 5126,
      "count": 32277,
      "max": [
        0.9998297095298767,
        0.999987781047821,
        0.9999753832817078
      ],
      "min": [
        -0.9998316764831543,
        -0.999954879283905,
        -0.9999985694885254
      ],
      "type": "VEC3"
    },
    {
      "bufferView": 1,
      "byteOffset": 178944,
      "componentType": 5126,
      "count": 32277,
      "max": [
        0.9511200189590454,
        0.9980499744415283
      ],
      "min": [
        0.7505199909210205,
        0.4096999764442444
      ],
      "type": "VEC2"
    },
    {
      "bufferView": 0,
      "byteOffset": 488832,
      "componentType": 5125,
      "count": 173952,
      "type": "SCALAR"
    },
    {
      "bufferView": 2,
      "byteOffset": 1311480,
      "componentType": 5126,
      "count": 16018,
      "max": [
        1.0079066753387451,
        0.23205721378326416,
        -0.037404369562864304
      ],
      "min": [
        -1.0078390836715698,
        -0.17230546474456787,
        -1.7524640560150146
      ],
      "type": "VEC3"
    },
    {
      "bufferView": 2,
      "byteOffset": 1503696,
      "componentType": 5126,
      "count": 16018,
      "max": [
        0.9999812841415405,
        1.0,
        1.0
      ],
      "min": [
        -0.9999909996986389,
        -1.0,
        -0.999436616897583
      ],
      "type": "VEC3"
    },
    {
      "bufferView": 1,
      "byteOffset": 437160,
      "componentType": 5126,
      "count": 16018,
      "max": [
        0.9918529987335205,
        0.946331262588501
      ],
      "min": [
        0.008147003129124641,
        0.008147001266479492
      ],
      "type": "VEC2"
    },
    {
      "bufferView": 0,
      "byteOffset": 1184640,
      "componentType": 5125,
      "count": 65760,
      "type": "SCALAR"
    },
    {
      "bufferView": 2,
      "byteOffset": 1695912,
      "componentType": 5126,
      "count": 4,
      "max": [
        0.5,
        0.0,
        0.5
      ],
      "min": [
        -0.5295189023017883,
        -0.02123304270207882,
        -0.5
      ],
      "type": "VEC3"
    },
    {
      "bufferView": 2,
      "byteOffset": 1695960,
      "componentType": 5126,
      "count": 4,
      "max": [
        -0.010460961610078812,
        0.9998905658721924,
        -0.010460960678756237
      ],
      "min": [
        -0.010460961610078812,
        0.9998905658721924,
        -0.010460960678756237
      ],
      "type": "VEC3"
    },
    {
      "bufferView": 1,
      "byteOffset": 565304,
      "componentType": 5126,
      "count": 4,
      "max": [
        1.0,
        1.0
      ],
      "min": [
        0.0,
        0.0
      ],
      "type": "VEC2"
    },
    {
      "bufferView": 0,
      "byteOffset": 1447680,
      "componentType": 5125,
      "count": 6,
      "type": "SCALAR"
    },
    {
      "bufferView": 2,
      "byteOffset": 1696008,
      "componentType": 5126,
      "count": 4,
      "max": [
        0.5,
        0.0,
        0.5
      ],
      "min": [
        -0.5295189023017883,
        -0.02123304270207882,
        -0.5
      ],
      "type": "VEC3"
    },
    {
      "bufferView": 2,
      "byteOffset": 1696056,
      "componentType": 5126,
      "count": 4,
      "max": [
        -0.010460961610078812,
        0.9998905658721924,
        -0.010460960678756237
      ],
      "min": [
        -0.010460961610078812,
        0.9998905658721924,
        -0.010460960678756237
      ],
      "type": "VEC3"
    },
    {
      "bufferView": 1,
      "byteOffset": 565336,
      "componentType": 5126,
      "count": 4,
      "max": [
        1.0,
        1.0
      ],
      "min": [
        0.0,
        0.0
      ],
      "type": "VEC2"
    },
    {
      "bufferView": 0,
      "byteOffset": 1447704,
      "componentType": 5125,
      "count": 6,
      "type": "SCALAR"
    },
    {
      "bufferView": 2,
      "byteOffset": 1696104,
      "componentType": 5126,
      "count": 4,
      "max": [
        0.8888888955116272,
        0.0,
        0.5
      ],
      "min": [
        -0.8888888955116272,
        0.0,
        -0.5
      ],
      "type": "VEC3"
    },
    {
      "bufferView": 2,
      "byteOffset": 1696152,
      "componentType": 5126,
      "count": 4,
      "max": [
        0.0,
        1.0,
        -0.0
      ],
      "min": [
        0.0,
        1.0,
        -0.0
      ],
      "type": "VEC3"
    },
    {
      "bufferView": 1,
      "byteOffset": 565368,
      "componentType": 5126,
      "count": 4,
      "max": [
        1.0,
        1.0
      ],
      "min": [
        0.0,
        0.0
      ],
      "type": "VEC2"
    },
    {
      "bufferView": 0,
      "byteOffset": 1447728,
      "componentType": 5125,
      "count": 6,
      "type": "SCALAR"
    },
    {
      "bufferView": 2,
      "byteOffset": 1696200,
      "componentType": 5126,
      "count": 50,
      "max": [
        9.170742988586426,
        1.0,
        28.507368087768555
      ],
      "min": [
        -1.0798481702804565,
        -1.0,
        -1.0
      ],
      "type": "VEC3"
    },
    {
      "bufferView": 2,
      "byteOffset": 1696800,
      "componentType": 5126,
      "count": 50,
      "max": [
        1.0,
        1.0,
        1.0
      ],
      "min": [
        -1.0,
        -1.0,
        -1.0
      ],
      "type": "VEC3"
    },
    {
      "bufferView": 1,
      "byteOffset": 565400,
      "componentType": 5126,
      "count": 50,
      "max": [
        0.875,
        1.0
      ],
      "min": [
        0.125,
        0.0
      ],
      "type": "VEC2"
    },
    {
      "bufferView": 0,
      "byteOffset": 1447752,
      "componentType": 5125,
      "count": 96,
      "type": "SCALAR"
    }
  ],
  "asset": {
    "extras": {
      "author": "PitstopRenders (https://sketchfab.com/PitstopRenders)",
      "license": "CC-BY-4.0 (http://creativecommons.org/licenses/by/4.0/)",
      "source": "https://sketchfab.com/3d-models/apple-ar-glasses-concept-art-06319e102a824b10834a033235802921",
      "title": "Apple AR Glasses Concept Art"
    },
    "generator": "Sketchfab-12.68.0",
    "version": "2.0"
  },
  "bufferViews": [
    {
      "buffer": 0,
      "byteLength": 1448136,
      "name": "floatBufferViews",
      "target": 34963
    },
    {
      "buffer": 0,
      "byteLength": 565800,
      "byteOffset": 1448136,
      "byteStride": 8,
      "name": "floatBufferViews",
      "target": 34962
    },
    {
      "buffer": 0,
      "byteLength": 1697400,
      "byteOffset": 2013936,
      "byteStride": 12,
      "name": "floatBufferViews",
      "target": 34962
    }
  ],
  "buffers": [
    {
      "byteLength": 3711336,
      "uri": "scene.bin"
    }
  ],
  "images": [
    {
      "uri": "textures/Home_Screen_Desing_baseColor.png"
    },
    {
      "uri": "textures/Home_Screen_Desing.002_baseColor.png"
    },
    {
      "uri": "textures/Untitled-1_baseColor.png"
    }
  ],
  "materials": [
    {
      "doubleSided": true,
      "name": "material_0",
      "pbrMetallicRoughness": {
        "metallicFactor": 0.0,
        "roughnessFactor": 0.6
      }
    },
    {
      "name": "Frame",
      "pbrMetallicRoughness": {
        "baseColorFactor": [
          0.486902,
          0.486902,
          0.486902,
          1.0
        ],
        "metallicFactor": 0.0,
        "roughnessFactor": 0.154154
      }
    },
    {
      "alphaMode": "BLEND",
      "name": "Frame.1",
      "pbrMetallicRoughness": {
        "baseColorFactor": [
          1.0,
          1.0,
          1.0,
          0.0
        ],
        "metallicFactor": 0.0,
        "roughnessFactor": 0.227325
      }
    },
    {
      "doubleSided": true,
      "name": "Material.001",
      "pbrMetallicRoughness": {
        "baseColorFactor": [
          0.0291004,
          0.0291004,
          0.0291004,
          1.0
        ],
        "metallicFactor": 0.0,
        "roughnessFactor": 0.5
      }
    },
    {
      "alphaMode": "BLEND",
      "doubleSided": true,
      "name": "Home_Screen_Desing",
      "pbrMetallicRoughness": {
        "baseColorTexture": {
          "index": 0
        },
        "metallicFactor": 0.0,
        "roughnessFactor": 0.5
      }
    },
    {
      "alphaMode": "BLEND",
      "doubleSided": true,
      "name": "Home_Screen_Desing.002",
      "pbrMetallicRoughness": {
        "baseColorTexture": {
          "index": 1
        },
        "metallicFactor": 0.0,
        "roughnessFactor": 0.5
      }
    },
    {
      "alphaMode": "BLEND",
      "doubleSided": true,
      "name": "Untitled-1",
      "pbrMetallicRoughness": {
        "baseColorTexture": {
          "index": 2
        },
        "metallicFactor": 0.0,
        "roughnessFactor": 0.5
      }
    }
  ],
  "meshes": [
    {
      "name": "Object_0",
      "primitives": [
        {
          "attributes": {
            "NORMAL": 1,
            "POSITION": 0,
            "TEXCOORD_0": 2
          },
          "indices": 3,
          "material": 1,
          "mode": 4
        }
      ]
    },
    {
      "name": "Object_1",
      "primitives": [
        {
          "attributes": {
            "NORMAL": 5,
            "POSITION": 4,
            "TEXCOORD_0": 6
          },
          "indices": 7,
          "material": 2,
          "mode": 4
        }
      ]
    },
    {
      "name": "Object_2",
      "primitives": [
        {
          "attributes": {
            "NORMAL": 9,
            "POSITION": 8,
            "TEXCOORD_0": 10
          },
          "indices": 11,
          "material": 3,
          "mode": 4
        }
      ]
    },
    {
      "name": "Object_3",
      "primitives": [
        {
          "attributes": {
            "NORMAL": 13,
            "POSITION": 12,
            "TEXCOORD_0": 14
          },
          "indices": 15,
          "material": 4,
          "mode": 4
        }
      ]
    },
    {
      "name": "Object_4",
      "primitives": [
        {
          "attributes": {
            "NORMAL": 17,
            "POSITION": 16,
            "TEXCOORD_0": 18
          },
          "indices": 19,
          "material": 5,
          "mode": 4
        }
      ]
    },
    {
      "name": "Object_5",
      "primitives": [
        {
          "attributes": {
            "NORMAL": 21,
            "POSITION": 20,
            "TEXCOORD_0": 22
          },
          "indices": 23,
          "material": 6,
          "mode": 4
        }
      ]
    },
    {
      "name": "Object_6",
      "primitives": [
        {
          "attributes": {
            "NORMAL": 25,
            "POSITION": 24,
            "TEXCOORD_0": 26
          },
          "indices": 27,
          "material": 0,
          "mode": 4
        }
      ]
    }
  ],
  "nodes": [
    {
      "children": [
        1
      ],
      "matrix": [
        1.0,
        0.0,
        0.0,
        0.0,
        0.0,
        2.220446049250313e-16,
        -1.0,
        0.0,
        0.0,
        1.0,
        2.220446049250313e-16,
        0.0,
        0.0,
        0.0,
        0.0,
        1.0
      ],
      "name": "Sketchfab_model"
    },
    {
      "children": [
        2
      ],
      "name": "root"
    },
    {
      "children": [
        3,
        17,
        19,
        21,
        23
      ],
      "matrix": [
        1.0,
        0.0,
        0.0,
        0.0,
        0.0,
        2.220446049250313e-16,
        1.0,
        0.0,
        0.0,
        -1.0,
        2.220446049250313e-16,
        0.0,
        0.0,
        0.0,
        0.0,
        1.0
      ],
      "name": "GLTF_SceneRootNode"
    },
    {
      "children": [
        4
      ],
      "matrix": [
        5.653445243835449,
        0.0,
        -0.0,
        0.0,
        -0.0,
        0.0,
        -5.653445243835449,
        0.0,
        0.0,
        5.653445243835449,
        0.0,
        0.0,
        0.0,
        0.0,
        0.0,
        1.0
      ],
      "name": "RootNode (gltf orientation matrix)_10"
    },
    {
      "children": [
        5
      ],
      "name": "RootNode (model correction matrix)_9"
    },
    {
      "children": [
        6
      ],
      "name": "root_8"
    },
    {
      "children": [
        7
      ],
      "matrix": [
        1.0,
        0.0,
        0.0,
        0.0,
        0.0,
        0.0,
        1.0,
        0.0,
        0.0,
        -1.0,
        0.0,
        0.0,
        0.0,
        0.0,
        0.0,
        1.0
      ],
      "name": "GLTF_SceneRootNode_7"
    },
    {
      "children": [
        8,
        11,
        14
      ],
      "name": "glasses OBJ.OBJ_0_6"
    },
    {
      "children": [
        9
      ],
      "name": "Frame_1_1"
    },
    {
      "children": [
        10
      ],
      "matrix": [
        1.0,
        0.0,
        0.0,
        0.0,
        0.0,
        1.0,
        0.0,
        0.0,
        0.0,
        0.0,
        1.0,
        0.0,
        0.019413381814956665,
        -0.019340669736266136,
        -0.005379703361541033,
        1.0
      ],
      "name": "Mesh_0_0"
    },
    {
      "mesh": 0,
      "name": "Object_10"
    },
    {
      "children": [
        12
      ],
      "name": "Glasses_3_3"
    },
    {
      "children": [
        13
      ],
      "name": "Mesh_2_2"
    },
    {
      "mesh": 1,
      "name": "Object_13"
    },
    {
      "children": [
        15
      ],
      "name": "Handles_2_5"
    },
    {
      "children": [
        16
      ],
      "name": "Mesh_1_4"
    },
    {
      "mesh": 2,
      "name": "Object_16"
    },
    {
      "children": [
        18
      ],
      "matrix": [
        2.9182073863170435,
        1.824780090984379e-09,
        0.3226572316938726,
        0.0,
        -0.32265723169387134,
        -2.479617047110774e-07,
        2.9182073863170332,
        0.0,
        2.9064027201875652e-08,
        -2.935990571975698,
        -2.462592316953834e-07,
        0.0,
        -2.7737221717834473,
        -0.4084348678588867,
        0.4317520558834076,
        1.0
      ],
      "name": "Home Screen Desing_13"
    },
    {
      "mesh": 3,
      "name": "Object_18"
    },
    {
      "children": [
        20
      ],
      "matrix": [
        4.217440548553374,
        0.0,
        -0.6077451149592351,
        0.0,
        0.6077451149592351,
        0.0,
        4.217440548553374,
        0.0,
        0.0,
        -4.261004447937012,
        0.0,
        0.0,
        2.971158027648926,
        -1.0527958869934082,
        0.3173040747642517,
        1.0
      ],
      "name": "Home Screen Desing.001_14"
    },
    {
      "mesh": 4,
      "name": "Object_20"
    },
    {
      "children": [
        22
      ],
      "matrix": [
        2.0834018243931496e-07,
        0.0,
        0.43692103028292456,
        0.0,
        -0.43692103028292456,
        0.0,
        2.0834018243931496e-07,
        0.0,
        0.0,
        -0.43692103028297424,
        0.0,
        0.0,
        -5.645114421844482,
        1.1151881217956543,
        -4.661970138549805,
        1.0
      ],
      "name": "Untitled-1_15"
    },
    {
      "mesh": 5,
      "name": "Object_22"
    },
    {
      "children": [
        24
      ],
      "matrix": [
        0.13148283958435059,
        0.0,
        0.0,
        0.0,
        0.0,
        0.13148283958435059,
        0.0,
        0.0,
        0.0,
        0.0,
        0.13148283958435059,
        0.0,
        -5.257641315460205,
        0.855948805809021,
        0.1981029510498047,
        1.0
      ],
      "name": "Cube_16"
    },
    {
      "mesh": 6,
      "name": "Object_24"
    }
  ],
  "samplers": [
    {
      "magFilter": 9729,
      "minFilter": 9987,
      "wrapS": 33071,
      "wrapT": 33071
    }
  ],
  "scene": 0,
  "scenes": [
    {
      "name": "Sketchfab_Scene",
      "nodes": [
        0
      ]
    }
  ],
  "textures": [
    {
      "sampler": 0,
      "source": 0
    },
    {
      "sampler": 0,
      "source": 1
    },
    {
      "sampler": 0,
      "source": 2
    }
  ]
}
