{
  "accessors": [
    {
      "bufferView": 2,
      "componentType": 5126,
      "count": 17504,
      "max": [
        0.8764844536781311,
        0.6523569822311401,
        1.5208629369735718
      ],
      "min": [
        -0.8764844536781311,
        -0.6523569822311401,
        -1.5208629369735718
      ],
      "type": "VEC3"
    },
    {
      "bufferView": 2,
      "byteOffset": 210048,
      "componentType": 5126,
      "count": 17504,
      "max": [
        0.999998927116394,
        1.0,
        1.0
      ],
      "min": [
        -0.999998927116394,
        -1.0,
        -1.0
      ],
      "type": "VEC3"
    },
    {
      "bufferView": 1,
      "componentType": 5126,
      "count": 17504,
      "max": [
        0.9944899082183838,
        0.993340015411377
      ],
      "min": [
        0.00317799998447299,
        0.0053910017013549805
      ],
      "type": "VEC2"
    },
    {
      "bufferView": 0,
      "componentType": 5125,
      "count": 97680,
      "type": "SCALAR"
    }
  ],
  "asset": {
    "extras": {
      "author": "markdo (https://sketchfab.com/markdo)",
      "license": "CC-BY-4.0 (http://creativecommons.org/licenses/by/4.0/)",
      "source": "https://sketchfab.com/3d-models/bambam-hat-1f7498b21a494576bd95abb3af91b58d",
      "title": "Bambam Hat"
    },
    "generator": "Sketchfab-12.67.0",
    "version": "2.0"
  },
  "bufferViews": [
    {
      "buffer": 0,
      "byteLength": 390720,
      "name": "floatBufferViews",
      "target": 34963
    },
    {
      "buffer": 0,
      "byteLength": 140032,
      "byteOffset": 390720,
      "byteStride": 8,
      "name": "floatBufferViews",
      "target": 34962
    },
    {
      "buffer": 0,
      "byteLength": 420096,
      "byteOffset": 530752,
      "byteStride": 12,
      "name": "floatBufferViews",
      "target": 34962
    }
  ],
  "buffers": [
    {
      "byteLength": 950848,
      "uri": "scene.bin"
    }
  ],
  "images": [
    {
      "uri": "textures/StrapBuckle_baseColor.jpeg"
    }
  ],
  "materials": [
    {
      "doubleSided": true,
      "name": "StrapBuckle",
      "pbrMetallicRoughness": {
        "baseColorTexture": {
          "index": 0
        },
        "metallicFactor": 0.0,
        "roughnessFactor": 0.9524317153998911
      }
    }
  ],
  "meshes": [
    {
      "name": "head_StrapBuckle_0",
      "primitives": [
        {
          "attributes": {
            "NORMAL": 1,
            "POSITION": 0,
            "TEXCOORD_0": 2
          },
          "indices": 3,
          "material": 0,
          "mode": 4
        }
      ]
    }
  ],
  "nodes": [
    {
      "children": [
        1
      ],
      "matrix": [
        1.0,
        0.0,
        0.0,
        0.0,
        0.0,
        2.220446049250313e-16,
        -1.0,
        0.0,
        0.0,
        1.0,
        2.220446049250313e-16,
        0.0,
        0.0,
        0.0,
        0.0,
        1.0
      ],
      "name": "Sketchfab_model"
    },
    {
      "children": [
        2
      ],
      "matrix": [
        1.0,
        0.0,
        0.0,
        0.0,
        0.0,
        0.0,
        1.0,
        0.0,
        0.0,
        -1.0,
        0.0,
        0.0,
        0.0,
        0.0,
        0.0,
        1.0
      ],
      "name": "a8d9bba80c7d4206bde2292c329a41d0.fbx"
    },
    {
      "children": [
        3
      ],
      "name": "RootNode"
    },
    {
      "children": [
        4
      ],
      "matrix": [
        1.0,
        0.0,
        0.0,
        0.0,
        0.0,
        1.0,
        0.0,
        0.0,
        0.0,
        0.0,
        1.0,
        0.0,
        -7.500000265281415e-08,
        17.564828872680664,
        -0.2383466511964798,
        1.0
      ],
      "name": "head"
    },
    {
      "mesh": 0,
      "name": "head_StrapBuckle_0"
    }
  ],
  "samplers": [
    {
      "magFilter": 9729,
      "minFilter": 9987,
      "wrapS": 10497,
      "wrapT": 10497
    }
  ],
  "scene": 0,
  "scenes": [
    {
      "name": "Sketchfab_Scene",
      "nodes": [
        0
      ]
    }
  ],
  "textures": [
    {
      "sampler": 0,
      "source": 0
    }
  ]
}
