{
  "accessors": [
    {
      "bufferView": 2,
      "componentType": 5126,
      "count": 2701,
      "max": [
        0.29684320092201233,
        -0.020173177123069763,
        0.009521111845970154
      ],
      "min": [
        -0.2968447208404541,
        -1.1815695762634277,
        -0.009531131014227867
      ],
      "type": "VEC3"
    },
    {
      "bufferView": 2,
      "byteOffset": 32412,
      "componentType": 5126,
      "count": 2701,
      "max": [
        0.9999806880950928,
        0.9989271759986877,
        0.9999387264251709
      ],
      "min": [
        -0.9999881982803345,
        -0.9994431734085083,
        -0.9999657869338989
      ],
      "type": "VEC3"
    },
    {
      "bufferView": 1,
      "componentType": 5126,
      "count": 2701,
      "max": [
        1.0,
        1.0
      ],
      "min": [
        -5.1411796448519453e-05,
        0.0
      ],
      "type": "VEC2"
    },
    {
      "bufferView": 0,
      "componentType": 5125,
      "count": 10314,
      "type": "SCALAR"
    },
    {
      "bufferView": 2,
      "byteOffset": 64824,
      "componentType": 5126,
      "count": 2476,
      "max": [
        0.08047979325056076,
        -0.4194449484348297,
        0.07325635850429535
      ],
      "min": [
        -0.08047964423894882,
        -1.5201181173324585,
        -0.07325635850429535
      ],
      "type": "VEC3"
    },
    {
      "bufferView": 2,
      "byteOffset": 94536,
      "componentType": 5126,
      "count": 2476,
      "max": [
        1.0,
        1.0,
        1.0
      ],
      "min": [
        -1.0,
        -1.0,
        -1.0
      ],
      "type": "VEC3"
    },
    {
      "bufferView": 1,
      "byteOffset": 21608,
      "componentType": 5126,
      "count": 2476,
      "max": [
        1.0,
        1.0
      ],
      "min": [
        0.0,
        0.0
      ],
      "type": "VEC2"
    },
    {
      "bufferView": 0,
      "byteOffset": 41256,
      "componentType": 5125,
      "count": 12972,
      "type": "SCALAR"
    },
    {
      "bufferView": 2,
      "byteOffset": 124248,
      "componentType": 5126,
      "count": 4016,
      "max": [
        0.06022370606660843,
        -1.4968135356903076,
        0.0619664303958416
      ],
      "min": [
        -0.06022370606660843,
        -1.7750343084335327,
        -0.06929223239421844
      ],
      "type": "VEC3"
    },
    {
      "bufferView": 2,
      "byteOffset": 172440,
      "componentType": 5126,
      "count": 4016,
      "max": [
        0.9993574023246765,
        0.998973548412323,
        0.997828483581543
      ],
      "min": [
        -0.9993574023246765,
        -0.9999404549598694,
        -0.9982093572616577
      ],
      "type": "VEC3"
    },
    {
      "bufferView": 1,
      "byteOffset": 41416,
      "componentType": 5126,
      "count": 4016,
      "max": [
        0.9910433292388916,
        0.9412168860435486
      ],
      "min": [
        0.00895664095878601,
        0.008956551551818848
      ],
      "type": "VEC2"
    },
    {
      "bufferView": 0,
      "byteOffset": 93144,
      "componentType": 5125,
      "count": 6024,
      "type": "SCALAR"
    }
  ],
  "asset": {
    "extras": {
      "author": "cubesugar811 (https://sketchfab.com/cubesugar0811)",
      "license": "CC-BY-4.0 (http://creativecommons.org/licenses/by/4.0/)",
      "source": "https://sketchfab.com/3d-models/earring-27d6d83010e4412eabb500f9103ad9b6",
      "title": "Earring"
    },
    "generator": "Sketchfab-12.68.0",
    "version": "2.0"
  },
  "bufferViews": [
    {
      "buffer": 0,
      "byteLength": 117240,
      "name": "floatBufferViews",
      "target": 34963
    },
    {
      "buffer": 0,
      "byteLength": 73544,
      "byteOffset": 117240,
      "byteStride": 8,
      "name": "floatBufferViews",
      "target": 34962
    },
    {
      "buffer": 0,
      "byteLength": 220632,
      "byteOffset": 190784,
      "byteStride": 12,
      "name": "floatBufferViews",
      "target": 34962
    }
  ],
  "buffers": [
    {
      "byteLength": 411416,
      "uri": "scene.bin"
    }
  ],
  "images": [
    {
      "uri": "textures/main_baseColor.png"
    }
  ],
  "materials": [
    {
      "doubleSided": true,
      "name": "metal_red",
      "pbrMetallicRoughness": {
        "baseColorFactor": [
          0.8,
          0.153551,
          0.270542,
          1.0
        ],
        "roughnessFactor": 0.198582
      }
    },
    {
      "doubleSided": true,
      "name": "metal_gold",
      "pbrMetallicRoughness": {
        "baseColorFactor": [
          0.8,
          0.677922,
          0.380034,
          1.0
        ],
        "roughnessFactor": 0.198582
      }
    },
    {
      "doubleSided": true,
      "name": "main",
      "pbrMetallicRoughness": {
        "baseColorTexture": {
          "index": 0
        },
        "metallicFactor": 0.0,
        "roughnessFactor": 0.5
      }
    }
  ],
  "meshes": [
    {
      "name": "Object_0",
      "primitives": [
        {
          "attributes": {
            "NORMAL": 1,
            "POSITION": 0,
            "TEXCOORD_0": 2
          },
          "indices": 3,
          "material": 0,
          "mode": 4
        }
      ]
    },
    {
      "name": "Object_1",
      "primitives": [
        {
          "attributes": {
            "NORMAL": 5,
            "POSITION": 4,
            "TEXCOORD_0": 6
          },
          "indices": 7,
          "material": 1,
          "mode": 4
        }
      ]
    },
    {
      "name": "Object_2",
      "primitives": [
        {
          "attributes": {
            "NORMAL": 9,
            "POSITION": 8,
            "TEXCOORD_0": 10
          },
          "indices": 11,
          "material": 2,
          "mode": 4
        }
      ]
    }
  ],
  "nodes": [
    {
      "children": [
        1
      ],
      "matrix": [
        1.0,
        0.0,
        0.0,
        0.0,
        0.0,
        2.220446049250313e-16,
        -1.0,
        0.0,
        0.0,
        1.0,
        2.220446049250313e-16,
        0.0,
        0.0,
        0.0,
        0.0,
        1.0
      ],
      "name": "Sketchfab_model"
    },
    {
      "children": [
        2
      ],
      "name": "root"
    },
    {
      "children": [
        3
      ],
      "matrix": [
        1.0,
        0.0,
        0.0,
        0.0,
        0.0,
        2.220446049250313e-16,
        1.0,
        0.0,
        0.0,
        -1.0,
        2.220446049250313e-16,
        0.0,
        0.0,
        0.0,
        0.0,
        1.0
      ],
      "name": "GLTF_SceneRootNode"
    },
    {
      "children": [
        4,
        5,
        6
      ],
      "name": "Earring_0"
    },
    {
      "mesh": 0,
      "name": "Object_4"
    },
    {
      "mesh": 1,
      "name": "Object_5"
    },
    {
      "mesh": 2,
      "name": "Object_6"
    }
  ],
  "samplers": [
    {
      "magFilter": 9729,
      "minFilter": 9987,
      "wrapS": 10497,
      "wrapT": 10497
    }
  ],
  "scene": 0,
  "scenes": [
    {
      "name": "Sketchfab_Scene",
      "nodes": [
        0
      ]
    }
  ],
  "textures": [
    {
      "sampler": 0,
      "source": 0
    }
  ]
}
