{
  "accessors": [
    {
      "bufferView": 2,
      "componentType": 5126,
      "count": 3532,
      "max": [
        6.968900203704834,
        -3.901400089263916,
        3.966200113296509
      ],
      "min": [
        -6.9679999351501465,
        -8.399800300598145,
        -0.01489999983459711
      ],
      "type": "VEC3"
    },
    {
      "bufferView": 2,
      "byteOffset": 42384,
      "componentType": 5126,
      "count": 3532,
      "max": [
        0.9999864101409912,
        0.9999802112579346,
        0.9999449253082275
      ],
      "min": [
        -0.9999864101409912,
        -0.9999831914901733,
        -0.9999449253082275
      ],
      "type": "VEC3"
    },
    {
      "bufferView": 1,
      "componentType": 5126,
      "count": 3532,
      "max": [
        1.0,
        1.0
      ],
      "min": [
        0.0,
        0.0
      ],
      "type": "VEC2"
    },
    {
      "bufferView": 0,
      "componentType": 5125,
      "count": 20328,
      "type": "SCALAR"
    },
    {
      "bufferView": 2,
      "byteOffset": 84768,
      "componentType": 5126,
      "count": 4112,
      "max": [
        6.974800109863281,
        6.789400100708008,
        3.4990999698638916
      ],
      "min": [
        -6.974800109863281,
        -4.14300012588501,
        0.011900000274181366
      ],
      "type": "VEC3"
    },
    {
      "bufferView": 2,
      "byteOffset": 134112,
      "componentType": 5126,
      "count": 4112,
      "max": [
        0.9999916553497314,
        0.9992575645446777,
        0.9999449253082275
      ],
      "min": [
        -0.9999916553497314,
        -0.9999502897262573,
        -0.9999449253082275
      ],
      "type": "VEC3"
    },
    {
      "bufferView": 1,
      "byteOffset": 28256,
      "componentType": 5126,
      "count": 4112,
      "max": [
        58.875999450683594,
        18.552600860595703
      ],
      "min": [
        -52.28779983520508,
        -17.40959930419922
      ],
      "type": "VEC2"
    },
    {
      "bufferView": 0,
      "byteOffset": 81312,
      "componentType": 5125,
      "count": 23976,
      "type": "SCALAR"
    }
  ],
  "asset": {
    "extras": {
      "author": "vinigor (https://sketchfab.com/vinigor)",
      "license": "CC-BY-4.0 (http://creativecommons.org/licenses/by/4.0/)",
      "source": "https://sketchfab.com/3d-models/glasses-yellow-2c38a0d71fc64064b162b33154334265",
      "title": "Glasses yellow"
    },
    "generator": "Sketchfab-12.68.0",
    "version": "2.0"
  },
  "bufferViews": [
    {
      "buffer": 0,
      "byteLength": 177216,
      "name": "floatBufferViews",
      "target": 34963
    },
    {
      "buffer": 0,
      "byteLength": 61152,
      "byteOffset": 177216,
      "byteStride": 8,
      "name": "floatBufferViews",
      "target": 34962
    },
    {
      "buffer": 0,
      "byteLength": 183456,
      "byteOffset": 238368,
      "byteStride": 12,
      "name": "floatBufferViews",
      "target": 34962
    }
  ],
  "buffers": [
    {
      "byteLength": 421824,
      "uri": "scene.bin"
    }
  ],
  "materials": [
    {
      "alphaMode": "BLEND",
      "doubleSided": true,
      "name": "C_Glasses_Yellow_Glass",
      "pbrMetallicRoughness": {
        "baseColorFactor": [
          1.0,
          0.9022800986427694,
          0.0,
          0.2156184934220224
        ],
        "metallicFactor": 0.17788264436541862,
        "roughnessFactor": 0.0
      }
    },
    {
      "doubleSided": true,
      "name": "C_Glasses_Yellow_Plastic",
      "pbrMetallicRoughness": {
        "baseColorFactor": [
          0.004220366466787754,
          0.0040894825417448185,
          0.0040894825417448185,
          1.0
        ],
        "metallicFactor": 0.0,
        "roughnessFactor": 0.2973794997113306
      }
    }
  ],
  "meshes": [
    {
      "name": "Object_0",
      "primitives": [
        {
          "attributes": {
            "NORMAL": 1,
            "POSITION": 0,
            "TEXCOORD_0": 2
          },
          "indices": 3,
          "material": 0,
          "mode": 4
        }
      ]
    },
    {
      "name": "Object_1",
      "primitives": [
        {
          "attributes": {
            "NORMAL": 5,
            "POSITION": 4,
            "TEXCOORD_0": 6
          },
          "indices": 7,
          "material": 1,
          "mode": 4
        }
      ]
    }
  ],
  "nodes": [
    {
      "children": [
        1
      ],
      "matrix": [
        1.0,
        0.0,
        0.0,
        0.0,
        0.0,
        2.220446049250313e-16,
        -1.0,
        0.0,
        0.0,
        1.0,
        2.220446049250313e-16,
        0.0,
        0.0,
        0.0,
        0.0,
        1.0
      ],
      "name": "Sketchfab_model"
    },
    {
      "children": [
        2,
        3
      ],
      "name": "g4.obj.cleaner.materialmerger.gles"
    },
    {
      "mesh": 0,
      "name": "Object_2"
    },
    {
      "mesh": 1,
      "name": "Object_3"
    }
  ],
  "scene": 0,
  "scenes": [
    {
      "name": "Sketchfab_Scene",
      "nodes": [
        0
      ]
    }
  ]
}
